<?xml version="1.0" encoding="utf-8"?>
<!-- Generator: Adobe Illustrator 21.0.2, SVG Export Plug-In . SVG Version: 6.00 Build 0)  -->
<svg version="1.1" id="Layer_1" xmlns="http://www.w3.org/2000/svg" xmlns:xlink="http://www.w3.org/1999/xlink" x="0px" y="0px"
	 viewBox="0 0 59.1 58" style="enable-background:new 0 0 59.1 58;" xml:space="preserve">
<style type="text/css">
	.st0{fill:#231F20;}
	.st1{fill:#FF9025;}
</style>
<g>
	<path class="st0" d="M51.1,20.4L51,20.1c2.7-6.2,3.3-7.9,1.4-9.7l-4.1-4c-1.9-1.8-3.5-1.2-9.7,1.6l-0.4-0.2C35.7,1.5,34.9,0,32.4,0
		h-5.7c-2.6,0-3.4,1.7-5.7,7.8L20.5,8c-6.3-2.7-8-3.2-9.8-1.4l-4,3.9c-1.9,1.9-1.3,3.7,1.5,9.6l-0.1,0.3c-6.4,2.5-8,3.3-8,5.9v5.6
		c0,2.7,1.6,3.4,8,5.7l0.1,0.3c-2.7,6.2-3.3,7.8-1.4,9.7l4,4c1.9,1.8,3.5,1.2,9.7-1.6l0.4,0.2c2.5,6.3,3.3,7.8,5.9,7.8h5.7
		c2.6,0,3.5-1.7,5.7-7.8l0.4-0.2c6.4,2.7,7.9,3.2,9.8,1.4l4.1-4c1.9-1.9,1.3-3.7-1.6-9.6l0.1-0.3c6.4-2.5,8-3.3,8-5.9V26
		C59.2,23.4,57.6,22.7,51.1,20.4z M34.5,29c0,2.6-2.2,4.7-4.8,4.7s-4.8-2.1-4.8-4.7s2.2-4.7,4.8-4.7S34.5,26.4,34.5,29z"/>
	<path class="st1" d="M48.5,23.1L47.2,20c0,0,3.1-6.9,2.8-7.2l-4-4c-0.3-0.3-7.2,2.9-7.2,2.9l-3.2-1.3c0,0-2.8-7-3.2-7h-5.7
		c-0.4,0-3,7-3,7l-3.2,1.3c0,0-7-3-7.3-2.7l-4,4c-0.3,0.3,2.9,7,2.9,7l-1.3,3.1c0,0-7.1,2.8-7.1,3.1v5.6c0,0.4,7.2,2.9,7.2,2.9
		l1.3,3.1c0,0-3.1,6.9-2.8,7.2l4,4c0.3,0.3,7.2-2.9,7.2-2.9l3.2,1.3c0,0,2.8,7,3.2,7h5.7c0.4,0,3-7,3-7l3.2-1.3c0,0,7,3,7.3,2.7l4-4
		c0.3-0.3-2.9-7-2.9-7l1.3-3.1c0,0,7.1-2.8,7.1-3.1V26C55.7,25.7,48.5,23.1,48.5,23.1z M38,29c0,4.5-3.7,8.2-8.3,8.2
		s-8.3-3.7-8.3-8.2s3.7-8.2,8.3-8.2C34.2,20.8,38,24.5,38,29z"/>
</g>
</svg>
