<?xml version="1.0" encoding="utf-8"?>
<!-- Generator: Adobe Illustrator 21.0.2, SVG Export Plug-In . SVG Version: 6.00 Build 0)  -->
<svg version="1.1" id="Layer_1" xmlns="http://www.w3.org/2000/svg" xmlns:xlink="http://www.w3.org/1999/xlink" x="0px" y="0px"
	 viewBox="0 0 59.1 58" style="enable-background:new 0 0 59.1 58;" xml:space="preserve">
<style type="text/css">
	.st0{fill:#231F20;stroke:#231F20;stroke-width:8;stroke-miterlimit:10;}
	.st1{fill:#FFFFFF;}
</style>
<g>
	<path class="st0" d="M54,52.3l-5.8-5.8l-2.3,2.3c-0.2,0.2-0.4,0.2-0.6,0.2c-0.2,0-0.4-0.1-0.6-0.2c-0.3-0.3-0.3-0.8,0-1.2l2.3-2.3
		l-1.8-1.8l-3.5,3.5c-0.2,0.2-0.4,0.2-0.6,0.2s-0.4-0.1-0.6-0.2c-0.3-0.3-0.3-0.8,0-1.2l3.5-3.5l-1.7-1.7L40,43
		c-0.2,0.2-0.4,0.2-0.6,0.2c-0.2,0-0.4-0.1-0.6-0.2c-0.3-0.3-0.3-0.8,0-1.2l2.3-2.3l-1.8-1.7L36,41.3c-0.2,0.2-0.4,0.2-0.6,0.2
		s-0.4-0.1-0.6-0.2c-0.3-0.3-0.3-0.8,0-1.2l3.5-3.5l-1.8-1.7l-2.3,2.3c-0.2,0.2-0.4,0.2-0.6,0.2s-0.4-0.1-0.6-0.2
		c-0.3-0.3-0.3-0.8,0-1.2l2.3-2.3l-1.8-1.8l-3.5,3.5c-0.2,0.2-0.4,0.2-0.6,0.2c-0.2,0-0.4-0.1-0.6-0.2c-0.3-0.3-0.3-0.8,0-1.2
		l3.5-3.5L30.7,29l-2.3,2.3c-0.2,0.2-0.4,0.2-0.6,0.2c-0.2,0-0.4-0.1-0.6-0.2c-0.3-0.3-0.3-0.8,0-1.2l2.3-2.3l-1.8-1.7l-3.5,3.5
		c-0.2,0.2-0.4,0.2-0.6,0.2c-0.2,0-0.4-0.1-0.6-0.2c-0.3-0.3-0.3-0.8,0-1.2l3.5-3.5l-1.8-1.8l-2.3,2.3c-0.2,0.2-0.4,0.2-0.6,0.2
		c-0.2,0-0.4-0.1-0.6-0.2c-0.3-0.3-0.3-0.8,0-1.2l2.3-2.3L22,20.2l-3.5,3.5c-0.2,0.2-0.4,0.2-0.6,0.2s-0.4-0.1-0.6-0.2
		c-0.3-0.3-0.3-0.8,0-1.2l3.5-3.5L19,17.3l-2.3,2.3c-0.2,0.2-0.4,0.2-0.6,0.2s-0.4-0.1-0.6-0.2c-0.3-0.3-0.3-0.8,0-1.2l2.3-2.3
		l-1.8-1.8l-3.5,3.5c-0.2,0.2-0.4,0.2-0.6,0.2c-0.2,0-0.4-0.1-0.6-0.2c-0.3-0.3-0.3-0.8,0-1.2l3.5-3.5l-1.7-1.7l-2.3,2.3
		c-0.2,0.2-0.4,0.2-0.6,0.2S9.9,14,9.7,13.8c-0.3-0.3-0.3-0.8,0-1.2l2.3-2.3L6.2,4.5C6,4.3,5.6,4.2,5.3,4.3C5,4.4,4.8,4.7,4.8,5.1
		v47.8c0,0.5,0.4,0.8,0.8,0.8h47.8c0,0,0,0,0,0c0.5,0,0.8-0.4,0.8-0.8C54.3,52.6,54.2,52.4,54,52.3z M29.6,43.9
		C29.6,43.9,29.6,43.9,29.6,43.9H15.5c-0.5,0-0.8-0.4-0.8-0.8V29c0-0.3,0.2-0.6,0.5-0.8c0.3-0.1,0.7-0.1,0.9,0.2l14,14
		c0.2,0.1,0.3,0.4,0.3,0.7C30.4,43.5,30,43.9,29.6,43.9z"/>
</g>
<g>
	<path class="st1" d="M54,52.3l-5.8-5.8l-2.3,2.3c-0.2,0.2-0.4,0.2-0.6,0.2c-0.2,0-0.4-0.1-0.6-0.2c-0.3-0.3-0.3-0.8,0-1.2l2.3-2.3
		l-1.8-1.8l-3.5,3.5c-0.2,0.2-0.4,0.2-0.6,0.2s-0.4-0.1-0.6-0.2c-0.3-0.3-0.3-0.8,0-1.2l3.5-3.5l-1.7-1.7L40,43
		c-0.2,0.2-0.4,0.2-0.6,0.2c-0.2,0-0.4-0.1-0.6-0.2c-0.3-0.3-0.3-0.8,0-1.2l2.3-2.3l-1.8-1.7L36,41.3c-0.2,0.2-0.4,0.2-0.6,0.2
		s-0.4-0.1-0.6-0.2c-0.3-0.3-0.3-0.8,0-1.2l3.5-3.5l-1.8-1.7l-2.3,2.3c-0.2,0.2-0.4,0.2-0.6,0.2s-0.4-0.1-0.6-0.2
		c-0.3-0.3-0.3-0.8,0-1.2l2.3-2.3l-1.8-1.8l-3.5,3.5c-0.2,0.2-0.4,0.2-0.6,0.2c-0.2,0-0.4-0.1-0.6-0.2c-0.3-0.3-0.3-0.8,0-1.2
		l3.5-3.5L30.7,29l-2.3,2.3c-0.2,0.2-0.4,0.2-0.6,0.2c-0.2,0-0.4-0.1-0.6-0.2c-0.3-0.3-0.3-0.8,0-1.2l2.3-2.3l-1.8-1.7l-3.5,3.5
		c-0.2,0.2-0.4,0.2-0.6,0.2c-0.2,0-0.4-0.1-0.6-0.2c-0.3-0.3-0.3-0.8,0-1.2l3.5-3.5l-1.8-1.8l-2.3,2.3c-0.2,0.2-0.4,0.2-0.6,0.2
		c-0.2,0-0.4-0.1-0.6-0.2c-0.3-0.3-0.3-0.8,0-1.2l2.3-2.3L22,20.2l-3.5,3.5c-0.2,0.2-0.4,0.2-0.6,0.2s-0.4-0.1-0.6-0.2
		c-0.3-0.3-0.3-0.8,0-1.2l3.5-3.5L19,17.3l-2.3,2.3c-0.2,0.2-0.4,0.2-0.6,0.2s-0.4-0.1-0.6-0.2c-0.3-0.3-0.3-0.8,0-1.2l2.3-2.3
		l-1.8-1.8l-3.5,3.5c-0.2,0.2-0.4,0.2-0.6,0.2c-0.2,0-0.4-0.1-0.6-0.2c-0.3-0.3-0.3-0.8,0-1.2l3.5-3.5l-1.7-1.7l-2.3,2.3
		c-0.2,0.2-0.4,0.2-0.6,0.2S9.9,14,9.7,13.8c-0.3-0.3-0.3-0.8,0-1.2l2.3-2.3L6.2,4.5C6,4.3,5.6,4.2,5.3,4.3C5,4.4,4.8,4.7,4.8,5.1
		v47.8c0,0.5,0.4,0.8,0.8,0.8h47.8c0,0,0,0,0,0c0.5,0,0.8-0.4,0.8-0.8C54.3,52.6,54.2,52.4,54,52.3z M29.6,43.9
		C29.6,43.9,29.6,43.9,29.6,43.9H15.5c-0.5,0-0.8-0.4-0.8-0.8V29c0-0.3,0.2-0.6,0.5-0.8c0.3-0.1,0.7-0.1,0.9,0.2l14,14
		c0.2,0.1,0.3,0.4,0.3,0.7C30.4,43.5,30,43.9,29.6,43.9z"/>
</g>
</svg>
