<?xml version="1.0" encoding="utf-8"?>
<!-- Generator: Adobe Illustrator 21.0.2, SVG Export Plug-In . SVG Version: 6.00 Build 0)  -->
<svg version="1.1" id="Layer_1" xmlns="http://www.w3.org/2000/svg" xmlns:xlink="http://www.w3.org/1999/xlink" x="0px" y="0px"
	 viewBox="0 0 59.1 58" style="enable-background:new 0 0 59.1 58;" xml:space="preserve">
<style type="text/css">
	.st0{fill:#231F20;}
	.st1{fill:#FF9025;}
</style>
<g>
	<line class="st0" x1="3.8" y1="3.5" x2="32.8" y2="31.3"/>
	<path class="st0" d="M30.9,31.5l-2.2-2.1l2.1-2.2l2.2,2.1L30.9,31.5z M26.6,27.4l-2.2-2.1l2.1-2.2l2.2,2.1L26.6,27.4z M22.2,23.3
		l-2.2-2.1l2.1-2.2l2.2,2.1L22.2,23.3z M17.9,19.1L15.7,17l2.1-2.2l2.2,2.1L17.9,19.1z M13.6,15l-2.2-2.1l2.1-2.2l2.2,2.1L13.6,15z
		 M9.2,10.8L7,8.7l2.1-2.2l2.2,2.1L9.2,10.8z M4.9,6.7L2.7,4.6l2.1-2.2L7,4.5L4.9,6.7z"/>
</g>
<path class="st0" d="M1.8,1.5v31.2h33.1V1.5H1.8z M31.4,29.4H5.2V4.8h26.3V29.4z"/>
<g>
	<polygon class="st1" points="30,27.5 54.8,38.6 44.7,42.3 39.7,53.4 	"/>
	<path class="st0" d="M32,29.7l19.7,8.8l-7.9,3l-4.1,9L32,29.7 M27.9,25.4l1.9,5.1l7.8,20.7l1.9,5.2l2.3-5l3.7-8.1l7-2.6l5.2-1.9
		l-5.1-2.2l-19.7-8.9L27.9,25.4L27.9,25.4z"/>
</g>
</svg>
